<svg width="357" height="357" viewBox="0 0 357 357" fill="none" xmlns="http://www.w3.org/2000/svg">
<path fill-rule="evenodd" clip-rule="evenodd" d="M178.5 357C277.083 357 357 277.083 357 178.5C357 79.9172 277.083 0 178.5 0C79.9172 0 0 79.9172 0 178.5C0 277.083 79.9172 357 178.5 357ZM178.5 296C243.393 296 296 243.393 296 178.5C296 113.607 243.393 61 178.5 61C113.607 61 61 113.607 61 178.5C61 243.393 113.607 296 178.5 296Z" fill="#000357" fill-opacity="0.08"/>
<path fill-rule="evenodd" clip-rule="evenodd" d="M178.5 273C230.691 273 273 230.691 273 178.5C273 126.309 230.691 84 178.5 84C126.309 84 84 126.309 84 178.5C84 230.691 126.309 273 178.5 273ZM178.5 240.706C212.855 240.706 240.706 212.855 240.706 178.5C240.706 144.145 212.855 116.294 178.5 116.294C144.145 116.294 116.294 144.145 116.294 178.5C116.294 212.855 144.145 240.706 178.5 240.706Z" fill="#000357" fill-opacity="0.08"/>
</svg>
