<svg width="521" height="459" viewBox="0 0 521 459" fill="none" xmlns="http://www.w3.org/2000/svg">
<g clip-path="url(#clip0_4_278)">
<path d="M300.731 453.736H0V455.052H300.731V453.736Z" fill="#3F3D56"/>
<path d="M76.4461 449.15H84.9962L89.0645 415.962H76.4447L76.4461 449.15Z" fill="#FFB8B8"/>
<path d="M101.487 457.139L74.6139 457.14L74.6134 446.692L91.104 446.691C93.8577 446.691 96.4987 447.792 98.446 449.751C100.393 451.71 101.487 454.368 101.487 457.139Z" fill="#2F2E41"/>
<path d="M30.9524 447.496L39.4286 448.633L47.8204 416.277L35.3115 414.599L30.9524 447.496Z" fill="#FFB8B8"/>
<path d="M54.7249 458.746L28.0871 455.172L29.4593 444.815L45.8052 447.008C48.5348 447.375 51.008 448.817 52.6808 451.018C54.3535 453.219 55.0888 455.999 54.7249 458.746Z" fill="#2F2E41"/>
<path d="M43.1 312.08L91.2245 314.186L89.1322 437.007L76.578 435.603L66.8136 352.085L43.7975 441.218L31.2433 439.112L43.1 312.08Z" fill="#2F2E41"/>
<path d="M75.1833 239.089L58.4443 235.648L47.9825 312.782C47.9825 312.782 78.6706 333.135 88.435 312.08L75.1833 239.089Z" fill="#6C63FF"/>
<path d="M67.882 230.03C77.3427 230.03 85.0122 222.313 85.0122 212.792C85.0122 203.272 77.3427 195.555 67.882 195.555C58.4212 195.555 50.7517 203.272 50.7517 212.792C50.7517 222.313 58.4212 230.03 67.882 230.03Z" fill="#FFB8B8"/>
<path d="M58.4443 234.878L34.0334 242.598C34.0334 242.598 45.8901 302.254 26.3613 333.135C26.3613 333.135 50.7723 359.103 61.2342 300.851C61.2342 300.851 69.6036 253.828 58.4443 234.878Z" fill="#2F2E41"/>
<path d="M75.1833 239.089L93.3172 250.319C93.3172 250.319 103.082 332.433 93.3172 340.153C83.5528 347.874 75.1833 239.089 75.1833 239.089Z" fill="#2F2E41"/>
<path d="M100.856 352.061C100.113 351.351 99.534 350.485 99.1594 349.524C98.7848 348.564 98.624 347.532 98.6884 346.503C98.7528 345.473 99.0407 344.47 99.532 343.564C100.023 342.659 100.706 341.872 101.532 341.261L94.1592 317.303L106.597 320.939L111.691 343.132C112.62 344.596 112.983 346.352 112.711 348.068C112.439 349.783 111.551 351.339 110.215 352.439C108.88 353.54 107.189 354.109 105.464 354.04C103.74 353.97 102.1 353.266 100.856 352.061Z" fill="#FFB8B8"/>
<path d="M38.208 345.133C37.3805 344.524 36.6958 343.739 36.2021 342.835C35.7084 341.931 35.4177 340.928 35.3506 339.899C35.2834 338.869 35.4414 337.838 35.8135 336.876C36.1855 335.915 36.7625 335.047 37.5038 334.334L27.1441 311.523L39.9417 313.527L47.8174 334.881C48.9249 336.214 49.5081 337.909 49.4565 339.645C49.405 341.381 48.7223 343.038 47.5378 344.302C46.3533 345.566 44.7493 346.348 43.0298 346.501C41.3103 346.654 39.5946 346.167 38.208 345.133Z" fill="#FFB8B8"/>
<path d="M40.3102 243.3L34.0331 242.599L17.9916 295.236L34.0331 331.732L46.5873 324.011L32.6382 293.833L43.7975 261.548L40.3102 243.3Z" fill="#2F2E41"/>
<path d="M89.8296 249.617L93.3169 250.319L110.056 332.434L98.8966 335.943L85.6449 287.516L89.8296 249.617Z" fill="#2F2E41"/>
<path d="M56.1107 219.871C56.3416 218.177 57.0058 216.572 58.0382 215.215C59.0707 213.857 60.4359 212.792 62.0002 212.125C65.2975 210.764 69.0171 211.339 72.5715 211.599C76.1259 211.859 80.083 211.633 82.648 209.144C84.9913 206.869 85.5182 203.095 84.3867 200.023C83.2551 196.951 80.6929 194.566 77.7822 193.099C74.816 191.73 71.6379 190.885 68.387 190.6C63.6366 190.023 58.7585 189.949 54.1286 191.165C49.4987 192.38 50.6924 194.986 47.9792 198.952C45.2661 202.918 44.4533 208.321 46.5218 212.663C47.906 215.568 50.3864 217.767 52.8017 219.882" fill="#2F2E41"/>
<path d="M324.902 410.086L324.901 408.77C327.501 408.77 330.14 408.716 332.746 408.611L332.798 409.925C330.175 410.031 327.519 410.085 324.902 410.086ZM317.007 409.934C314.394 409.831 311.742 409.674 309.125 409.466L309.228 408.154C311.827 408.361 314.462 408.517 317.059 408.619L317.007 409.934ZM340.68 409.449L340.576 408.137C343.171 407.928 345.797 407.663 348.381 407.349L348.538 408.655C345.936 408.971 343.293 409.238 340.68 409.449ZM301.267 408.682C298.66 408.367 296.029 407.997 293.446 407.58L293.654 406.281C296.219 406.695 298.833 407.063 301.422 407.375L301.267 408.682ZM356.356 407.544L356.148 406.245C358.712 405.828 361.308 405.351 363.864 404.828L364.125 406.117C361.552 406.644 358.938 407.124 356.356 407.544ZM285.677 406.161C283.103 405.637 280.511 405.053 277.97 404.427L278.281 403.149C280.805 403.771 283.38 404.351 285.936 404.871L285.677 406.161ZM371.83 404.374L371.517 403.097C374.049 402.47 376.598 401.783 379.094 401.055L379.458 402.319C376.945 403.052 374.378 403.743 371.83 404.374ZM270.339 402.38C267.818 401.648 265.28 400.855 262.797 400.024L263.21 398.775C265.677 399.601 268.197 400.389 270.701 401.116L270.339 402.38ZM386.997 399.953L386.583 398.706C389.051 397.876 391.536 396.983 393.971 396.052L394.436 397.282C391.985 398.219 389.482 399.118 386.997 399.953ZM255.336 397.353C252.883 396.418 250.412 395.418 247.992 394.381L248.504 393.17C250.908 394.201 253.363 395.194 255.799 396.122L255.336 397.353ZM401.739 394.319L401.226 393.109C403.616 392.081 406.016 390.992 408.359 389.871L408.92 391.06C406.562 392.188 404.146 393.285 401.739 394.319ZM240.775 391.112C238.4 389.977 236.019 388.78 233.698 387.552L234.307 386.388C236.612 387.607 238.977 388.797 241.336 389.923L240.775 391.112ZM415.968 387.51L415.359 386.346C417.662 385.127 419.969 383.845 422.215 382.538L422.87 383.676C420.608 384.993 418.286 386.283 415.968 387.51ZM226.773 383.708C224.494 382.383 222.218 380.997 220.008 379.588L220.708 378.476C222.903 379.876 225.164 381.253 227.427 382.57L226.773 383.708ZM429.615 379.565L428.915 378.453C431.107 377.056 433.305 375.592 435.448 374.101L436.191 375.182C434.034 376.684 431.821 378.158 429.615 379.565ZM213.416 375.198C211.254 373.694 209.097 372.129 207.006 370.546L207.792 369.495C209.87 371.068 212.012 372.622 214.159 374.116L213.416 375.198ZM442.59 370.538L441.804 369.486C443.877 367.918 445.953 366.28 447.973 364.619L448.801 365.638C446.766 367.31 444.677 368.958 442.59 370.538ZM200.787 365.639C198.758 363.97 196.733 362.236 194.771 360.486L195.638 359.502C197.588 361.24 199.598 362.962 201.615 364.62L200.787 365.639ZM454.812 360.49L453.945 359.505C455.893 357.768 457.833 355.967 459.71 354.154L460.615 355.103C458.726 356.929 456.773 358.741 454.812 360.49ZM188.966 355.098C187.08 353.274 185.2 351.384 183.38 349.48L184.323 348.568C186.131 350.46 187.998 352.338 189.871 354.148L188.966 355.098ZM466.201 349.485L465.258 348.573C467.061 346.687 468.851 344.736 470.582 342.773L471.56 343.647C469.818 345.622 468.015 347.586 466.201 349.485ZM178.024 343.644C176.281 341.667 174.558 339.632 172.905 337.597L173.917 336.764C175.56 338.786 177.271 340.807 179.002 342.77L178.024 343.644ZM476.683 337.595L475.671 336.763C477.323 334.73 478.953 332.64 480.518 330.55L481.562 331.341C479.988 333.445 478.346 335.549 476.683 337.595ZM168.031 331.351C166.456 329.246 164.901 327.081 163.412 324.915L164.487 324.166C165.967 326.317 167.51 328.468 169.076 330.559L168.031 331.351ZM486.189 324.893L485.114 324.145C486.599 321.984 488.058 319.768 489.451 317.557L490.555 318.262C489.153 320.486 487.684 322.718 486.189 324.893ZM159.054 318.299C157.653 316.076 156.277 313.793 154.964 311.514L156.095 310.855C157.399 313.119 158.766 315.386 160.158 317.594L159.054 318.299ZM494.655 311.457L493.523 310.798C494.832 308.522 496.11 306.193 497.321 303.877L498.478 304.49C497.259 306.822 495.972 309.166 494.655 311.457ZM151.151 304.57C149.933 302.242 148.745 299.857 147.62 297.48L148.8 296.914C149.918 299.275 151.098 301.645 152.308 303.957L151.151 304.57ZM502.019 297.371L500.838 296.806C501.957 294.436 503.044 292.011 504.068 289.595L505.271 290.111C504.24 292.543 503.146 294.986 502.019 297.371ZM144.377 290.256C143.347 287.833 142.355 285.361 141.427 282.908L142.649 282.44C143.57 284.876 144.556 287.332 145.579 289.738L144.377 290.256ZM508.23 282.722L507.007 282.256C507.934 279.794 508.823 277.286 509.647 274.8L510.887 275.216C510.058 277.719 509.163 280.244 508.23 282.722ZM138.769 275.424C137.936 272.923 137.144 270.371 136.414 267.839L137.67 267.473C138.395 269.987 139.182 272.522 140.009 275.007L138.769 275.424ZM513.234 267.627L511.977 267.262C512.699 264.751 513.38 262.186 514.003 259.636L515.272 259.95C514.645 262.517 513.96 265.1 513.234 267.627ZM134.367 260.164C133.739 257.602 133.155 254.994 132.631 252.412L133.912 252.149C134.433 254.713 135.013 257.304 135.636 259.849L134.367 260.164ZM516.999 252.197L515.717 251.935C516.234 249.372 516.707 246.759 517.122 244.169L518.413 244.379C517.995 246.986 517.52 249.616 516.999 252.197ZM131.208 244.595C130.789 241.998 130.416 239.351 130.1 236.728L131.398 236.57C131.712 239.176 132.082 241.805 132.499 244.385L131.208 244.595ZM519.512 236.508L518.214 236.351C518.525 233.747 518.787 231.105 518.993 228.498L520.296 228.602C520.089 231.226 519.825 233.886 519.512 236.508ZM129.307 228.823C129.096 226.195 128.936 223.526 128.829 220.89L130.136 220.837C130.241 223.455 130.401 226.106 130.61 228.717L129.307 228.823ZM520.766 220.671L519.46 220.619C519.562 217.997 519.614 215.342 519.614 212.727L519.614 212.291H520.921L520.922 212.724C520.922 215.359 520.869 218.031 520.766 220.671ZM129.972 212.945H128.664L128.664 212.724C128.664 210.157 128.714 207.558 128.812 205.001L130.118 205.052C130.021 207.592 129.972 210.174 129.972 212.727L129.972 212.945ZM519.441 204.401C519.333 201.788 519.171 199.137 518.958 196.522L520.262 196.414C520.476 199.047 520.639 201.716 520.748 204.346L519.441 204.401ZM130.576 197.172L129.273 197.069C129.478 194.435 129.739 191.774 130.048 189.161L131.347 189.317C131.04 191.912 130.781 194.555 130.576 197.172ZM518.163 188.669C517.847 186.074 517.474 183.445 517.053 180.856L518.344 180.643C518.767 183.25 519.143 185.897 519.46 188.51L518.163 188.669ZM132.43 181.5L131.139 181.291C131.553 178.686 132.026 176.055 132.545 173.472L133.826 173.732C133.311 176.298 132.842 178.911 132.43 181.5ZM515.63 173.093C515.106 170.522 514.523 167.932 513.898 165.395L515.167 165.078C515.796 167.632 516.383 170.24 516.911 172.828L515.63 173.093ZM135.533 166.028L134.263 165.716C134.885 163.155 135.568 160.571 136.293 158.035L137.549 158.399C136.829 160.918 136.151 163.485 135.533 166.028ZM511.857 157.773C511.129 155.26 510.34 152.726 509.51 150.242L510.75 149.823C511.585 152.324 512.38 154.875 513.112 157.405L511.857 157.773ZM139.871 150.86L138.631 150.445C139.458 147.94 140.349 145.413 141.28 142.936L142.503 143.401C141.579 145.862 140.693 148.371 139.871 150.86ZM506.86 142.812C505.931 140.364 504.943 137.91 503.923 135.516L505.124 134.998C506.152 137.407 507.147 139.878 508.082 142.342L506.86 142.812ZM145.433 136.058L144.23 135.543C145.257 133.112 146.349 130.669 147.474 128.28L148.656 128.844C147.538 131.216 146.454 133.644 145.433 136.058ZM500.694 128.343C499.574 125.985 498.392 123.617 497.179 121.305L498.335 120.69C499.557 123.018 500.747 125.402 501.874 127.777L500.694 128.343ZM152.166 121.768L151.008 121.157C152.227 118.82 153.51 116.474 154.823 114.185L155.956 114.843C154.652 117.116 153.376 119.447 152.166 121.768ZM493.383 114.413C492.075 112.148 490.706 109.882 489.313 107.677L490.417 106.971C491.819 109.191 493.197 111.472 494.514 113.752L493.383 114.413ZM160.02 108.08L158.915 107.376C160.317 105.145 161.784 102.912 163.274 100.74L164.35 101.488C162.87 103.645 161.413 105.863 160.02 108.08ZM484.976 101.11C483.493 98.9592 481.947 96.8096 480.381 94.7216L481.424 93.9289C483.001 96.0309 484.558 98.1947 486.05 100.36L484.976 101.11ZM168.939 95.0772L167.894 94.287C169.469 92.1766 171.109 90.0707 172.766 88.027L173.779 88.859C172.133 90.8888 170.504 92.9809 168.939 95.0772ZM475.533 88.522C473.884 86.4974 472.171 84.4785 470.442 82.5216L471.419 81.6472C473.16 83.6173 474.884 85.6496 476.545 87.6881L475.533 88.522ZM178.862 82.8419L177.883 81.9701C179.619 79.9964 181.42 78.03 183.236 76.1251L184.179 77.0361C182.376 78.928 180.587 80.8817 178.862 82.8419ZM465.115 76.729C463.305 74.8398 461.437 72.9646 459.56 71.1548L460.464 70.2046C462.353 72.0265 464.235 73.9144 466.056 75.816L465.115 76.729ZM189.721 71.4496L188.815 70.5014C190.701 68.6746 192.652 66.8603 194.612 65.1084L195.48 66.0919C193.533 67.8323 191.596 69.6351 189.721 71.4496ZM453.787 65.8074C451.834 64.0692 449.821 62.3494 447.805 60.6961L448.631 59.6762C450.66 61.3408 452.687 63.0718 454.653 64.8219L453.787 65.8074ZM201.447 60.9717L200.618 59.954C202.647 58.282 204.734 56.6313 206.823 55.047L207.61 56.0974C205.535 57.6711 203.462 59.3113 201.447 60.9717ZM441.622 55.8292C439.536 54.2539 437.392 52.7014 435.25 51.2148L435.992 50.1317C438.148 51.6282 440.307 53.191 442.407 54.7769L441.622 55.8292ZM213.962 51.4753L213.217 50.3941C215.372 48.8911 217.583 47.4144 219.789 46.0049L220.49 47.1157C218.299 48.5155 216.102 49.9823 213.962 51.4753ZM428.696 46.8606C426.492 45.4594 424.23 44.0849 421.972 42.7753L422.626 41.6356C424.898 42.9539 427.175 44.3377 429.395 45.7482L428.696 46.8606ZM227.185 43.0249L226.529 41.8865C228.79 40.5672 231.111 39.2746 233.426 38.0453L234.037 39.2088C231.736 40.43 229.431 41.714 227.185 43.0249ZM415.089 38.965C412.78 37.7475 410.414 36.5606 408.056 35.4373L408.615 34.2481C410.989 35.3788 413.372 36.5738 415.696 37.7996L415.089 38.965ZM241.033 35.6756L240.47 34.4877C242.828 33.3567 245.243 32.2575 247.648 31.2205L248.163 32.43C245.774 33.4597 243.375 34.5516 241.033 35.6756ZM400.884 32.1984C398.481 31.1714 396.026 30.1811 393.586 29.254L394.048 28.0231C396.504 28.9562 398.977 29.9536 401.395 30.9873L400.884 32.1984ZM255.415 29.4779L254.949 28.2483C257.395 27.3097 259.897 26.4083 262.383 25.569L262.799 26.8166C260.329 27.6501 257.845 28.5457 255.415 29.4779ZM386.172 26.6097C383.701 25.7851 381.18 25.0004 378.678 24.2773L379.039 23.013C381.558 23.7408 384.095 24.5307 386.583 25.3608L386.172 26.6097ZM270.286 24.4581L269.921 23.1951C272.435 22.4589 275.001 21.7644 277.547 21.1306L277.861 22.4078C275.332 23.0373 272.783 23.7274 270.286 24.4581ZM371.096 22.2529C368.571 21.6333 365.995 21.0567 363.439 20.5392L363.697 19.2492C366.27 19.7702 368.864 20.351 371.405 20.9745L371.096 22.2529ZM285.512 20.6689L285.249 19.3802C287.813 18.8521 290.426 18.369 293.016 17.944L293.227 19.2424C290.653 19.6648 288.058 20.1447 285.512 20.6689ZM355.719 19.1386C353.148 18.7262 350.534 18.3606 347.949 18.0529L348.103 16.7462C350.705 17.0561 353.337 17.4239 355.925 17.8396L355.719 19.1386ZM300.992 18.1303L300.834 16.8242C303.435 16.5056 306.078 16.2354 308.69 16.0221L308.796 17.3333C306.201 17.5457 303.576 17.8136 300.992 18.1303ZM340.143 17.282C337.551 17.0786 334.916 16.9251 332.312 16.8258L332.362 15.5107C334.983 15.611 337.635 15.7655 340.245 15.9701L340.143 17.282ZM316.626 16.8512L316.572 15.5368C319.187 15.4282 321.843 15.371 324.467 15.3665L324.469 16.6822C321.862 16.6867 319.223 16.7436 316.626 16.8512Z" fill="#CCCCCC"/>
<path d="M255.537 335.894C325.222 335.894 381.713 279.049 381.713 208.926C381.713 138.803 325.222 81.9578 255.537 81.9578C185.851 81.9578 129.36 138.803 129.36 208.926C129.36 279.049 185.851 335.894 255.537 335.894Z" fill="#3F3D56"/>
<path d="M210.754 301.685C247.763 301.685 277.764 260.155 277.764 208.926C277.764 157.696 247.763 116.167 210.754 116.167C173.745 116.167 143.743 157.696 143.743 208.926C143.743 260.155 173.745 301.685 210.754 301.685Z" fill="white"/>
<path d="M188.54 258.181C198.869 258.181 207.242 244.927 207.242 228.577C207.242 212.228 198.869 198.973 188.54 198.973C178.212 198.973 169.839 212.228 169.839 228.577C169.839 244.927 178.212 258.181 188.54 258.181Z" fill="#3F3D56"/>
<path d="M503.436 150.519C510.296 150.519 515.857 144.922 515.857 138.019C515.857 131.116 510.296 125.52 503.436 125.52C496.576 125.52 491.014 131.116 491.014 138.019C491.014 144.922 496.576 150.519 503.436 150.519Z" fill="#6C63FF"/>
<path d="M359.952 36.8405C370.062 36.8405 378.257 28.5935 378.257 18.4203C378.257 8.24703 370.062 0 359.952 0C349.842 0 341.647 8.24703 341.647 18.4203C341.647 28.5935 349.842 36.8405 359.952 36.8405Z" fill="#6C63FF"/>
<path d="M347.825 420.512C354.685 420.512 360.246 414.916 360.246 408.012C360.246 401.109 354.685 395.513 347.825 395.513C340.964 395.513 335.403 401.109 335.403 408.012C335.403 414.916 340.964 420.512 347.825 420.512Z" fill="#6C63FF"/>
</g>
<defs>
<clipPath id="clip0_4_278">
<rect width="521" height="459" fill="white"/>
</clipPath>
</defs>
</svg>
